<?xml version="1.0" encoding="utf-8"?>
<!-- Generator: Adobe Illustrator 26.0.0, SVG Export Plug-In . SVG Version: 6.00 Build 0)  -->
<svg version="1.1" xmlns="http://www.w3.org/2000/svg" xmlns:xlink="http://www.w3.org/1999/xlink" x="0px" y="0px"
	 viewBox="0 0 1122 1122" style="enable-background:new 0 0 1122 1122;" xml:space="preserve">
<style type="text/css">
	.st0{display:none;}
	.st1{display:inline;fill:#F9F7F2;}
	.st2{opacity:0.14;fill:#606060;}
	.st3{fill:#A01C1C;}
	.st4{fill:#69493E;}
	.st5{opacity:0.11;fill:#FFFFFF;}
	.st6{opacity:0.81;fill:#8E1919;}
	.st7{opacity:0.63;fill:#7A0F23;}
	.st8{fill:#819332;}
	.st9{fill:#849A31;}
	.st10{opacity:0.62;fill:#54372F;}
</style>
<g id="Bg" class="st0">
	<rect class="st1" width="1122" height="1122"/>
</g>
<g id="Object">
	<path class="st2" d="M821.27,909.25c7.76,3.31,14.35,7.47,19.24,12.69c-14.78,13.54-33.43,16.07-52.74,17.4
		c-70.3,4.86-140.61,9.72-210.91,14.58c-96.69,6.68-194.19,13.34-290.24,0.38c-10.85-1.46-25.22-9.41-20.2-19.14
		c2.09-4.05,6.87-5.78,11.23-7.08c81.46-24.21,171.89-28.6,256.33-31.5c48.86-1.68,97.89-1.72,146.75-0.22
		C714.15,897.4,782.45,892.7,821.27,909.25z"/>
	<g>
		<g>
			<path class="st3" d="M578.76,326.42c-12.32,2.01-24.69,2.49-37.14,0.32c-44.12-7.71-82.31-33.45-128.75-30.01
				c-59.2,4.39-116.92,30.53-157.07,73.31c-54.58,58.16-74.67,145-50.97,220.3c13.8,43.86,40.77,82.49,67.35,120.38
				c31.37,44.7,62.74,89.4,94.12,134.1c12.73,18.14,25.74,36.58,43.45,50.21c26.62,20.49,61.74,28.21,95.69,27.79
				c24.28-0.3,48.68-5.15,72.34-9.75c24.6-4.79,41.87-1.98,67.47,0.33c25.26,2.28,51.3-4.99,71.46-19.96
				c30.27-22.46,40.28-55.35,56.76-86.77c20.65-39.38,39.79-81.71,66.33-117.23c29.2-39.09,51-83.16,59.42-131.05
				c11.12-63.24-2.28-131.42-41.89-182.72c-39.61-51.3-106.33-83.39-171.95-76.97C649.51,302.21,614.31,320.64,578.76,326.42z"/>
			<path class="st4" d="M566.32,170.05c1.17-7.71,3.54-16.88,11.16-19.27c7.35-2.3,15.18,3.92,17.27,11.15
				c2.09,7.23,0.09,14.91-1.91,22.17c-15.23,55.33-29.43,111.08-45.85,166.07C526.34,339.81,562.27,196.82,566.32,170.05z"/>
			<path class="st5" d="M401.77,343.64c23.13,0.81,50.24,10.59,54.73,32.67c1.5,7.4,0.09,15.14-2.79,22.14
				c-9.04,22-30.81,35.94-49.32,51.33c-39.9,33.19-68.61,78.9-80.75,128.58c-3.13,12.8-6.12,27.27-17.4,34.54
				c-17.66,11.38-41.07-3.29-53.74-19.79C172.24,488.62,275.86,339.23,401.77,343.64z"/>
			<path class="st6" d="M630.99,849.57c45.42-16.43,74.21-59.79,114.99-85.26c2.53-1.58,5.24-3.14,8.24-3.36
				c6.55-0.49,11.97,5.79,12.72,12.14s-1.89,12.57-4.59,18.39c-9.59,20.66-20.75,40.64-33.35,59.71
				c-7.26,10.99-15.36,22.02-26.92,28.68c-24.02,13.84-54.62,5.05-82.29,8.66c-11.38,1.48-81.05,20.46-68.22-13.57
				C557.86,858.26,615.65,855.12,630.99,849.57z"/>
			<path class="st7" d="M514.69,349.28c1.34-3,5.07-4.39,8.43-4.21c3.36,0.18,6.51,1.55,9.69,2.62c11.23,3.75,23.78,3.64,34.94-0.32
				c4.19-1.49,8.25-3.51,12.66-4.17c4.41-0.66,9.47,0.39,12.06,3.93c2.44,3.34,2,8.1-0.15,11.62c-2.14,3.53-5.69,6.03-9.34,8.08
				c-13.68,7.68-32.42,11.67-47.62,5.91C527.92,369.92,510.43,358.87,514.69,349.28z"/>
			<path class="st8" d="M548.28,336.83c-2.47,4.53-5.01,9.03-7.65,13.47c20.75,14.45,75.91,17.88,102.44,21.74
				c44.48,6.47,91.24,5.11,133.69-13.38c35.19-15.35,57.54-38.52,81.55-66.44c28.58-33.23,64.24-61.56,96.68-91.2
				c-25.32-8.63-53.34-6.86-80.06-10.58c-26.43-3.67-51.54-12.71-77.5-18.5c-70.5-15.72-159.51,7.02-200.25,71.58
				C578.37,273.33,565.07,305.98,548.28,336.83z"/>
			<path class="st9" d="M954.98,201.03c-25.32-8.63-53.34-6.86-80.06-10.58c-26.43-3.67-51.54-12.71-77.5-18.5
				c-70.5-15.72-159.51,7.02-200.25,71.58c-18.8,29.8-32.11,62.44-48.9,93.3c-2.46,4.53-5,9.01-7.64,13.45
				c1.72-2.88,11.52-3.25,14.54-4.3c9.78-3.38,19.21-7.97,28.6-12.27c20.31-9.29,40.3-19.21,60.61-28.49
				c57.16-26.13,116.72-47.29,177.72-63.19c29.41-7.67,57.76-13.95,86.16-24.17C923.84,212.26,939.41,206.64,954.98,201.03z"/>
		</g>
		<path class="st10" d="M586.88,159.19c-2.95-3.3-8.21-5.05-11.2-1.88c-3.22,3.43-2.76,9.29,0.28,12.69
			c0.65,0.73,1.43,1.39,2.37,1.67c1.42,0.43,2.97-0.05,4.38-0.6C590.55,168.09,590.04,162.74,586.88,159.19z"/>
	</g>
</g>
</svg>
